<?xml version="1.0" encoding="UTF-8"?><svg xmlns="http://www.w3.org/2000/svg" xmlns:xlink="http://www.w3.org/1999/xlink" fill-opacity="1" color-rendering="auto" color-interpolation="auto" stroke="black" text-rendering="auto" stroke-linecap="square" width="3330" stroke-miterlimit="10" stroke-opacity="1" shape-rendering="auto" fill="black" stroke-dasharray="none" font-weight="normal" stroke-width="1" height="1733" font-family="'Dialog'" font-style="normal" stroke-linejoin="miter" font-size="12" stroke-dashoffset="0" image-rendering="auto">
  <!--Generated by ySVG-->
  <defs id="genericDefs"/>
  <g>
    <defs id="defs1">
      <clipPath clipPathUnits="userSpaceOnUse" id="clipPath1">
        <path d="M0 0 L3330 0 L3330 1733 L0 1733 L0 0 Z"/>
      </clipPath>
      <clipPath clipPathUnits="userSpaceOnUse" id="clipPath2">
        <path d="M-1344 -170 L1986 -170 L1986 1563 L-1344 1563 L-1344 -170 Z"/>
      </clipPath>
    </defs>
    <g fill="white" transform="translate(1344,170)" stroke="white">
      <rect x="-1344" width="3330" height="1733" y="-170" clip-path="url(#clipPath2)" stroke="none"/>
    </g>
    <g fill="rgb(245,245,245)" transform="matrix(1,0,0,1,1344,170)" stroke="rgb(245,245,245)">
      <rect x="-1328.2267" y="939.7801" clip-path="url(#clipPath2)" width="741.9046" rx="4" ry="4" height="521.1773" stroke="none"/>
      <rect x="-1328.2267" y="939.7801" clip-path="url(#clipPath2)" fill="rgb(235,235,235)" width="741.9046" height="22.3765" stroke="none"/>
    </g>
    <g font-size="15" stroke-miterlimit="1.45" font-family="sans-serif" transform="matrix(1,0,0,1,1344,170)" stroke-linecap="butt">
      <text x="-642.5213" xml:space="preserve" y="956.8607" clip-path="url(#clipPath2)" stroke="none">Group 9</text>
      <rect x="-1328.2267" y="939.7801" clip-path="url(#clipPath2)" fill="none" width="741.9046" stroke-dasharray="6,2" rx="4" ry="4" height="521.1773"/>
    </g>
    <g fill="rgb(225,225,225)" transform="matrix(1,0,0,1,1344,170)" stroke="rgb(225,225,225)">
      <rect x="-1234.7051" y="1092.6565" clip-path="url(#clipPath2)" width="457.0959" rx="4" ry="4" height="136.5601" stroke="none"/>
      <rect x="-1234.7051" y="1092.6565" clip-path="url(#clipPath2)" fill="rgb(235,235,235)" width="457.0959" height="22.3765" stroke="none"/>
    </g>
    <g font-size="15" stroke-miterlimit="1.45" font-family="sans-serif" transform="matrix(1,0,0,1,1344,170)" stroke-linecap="butt">
      <text x="-833.8084" xml:space="preserve" y="1109.7371" clip-path="url(#clipPath2)" stroke="none">Group 2</text>
      <rect x="-1234.7051" y="1092.6565" clip-path="url(#clipPath2)" fill="none" width="457.0959" stroke-dasharray="6,2" rx="4" ry="4" height="136.5601"/>
    </g>
    <g fill="rgb(255,255,153)" transform="matrix(1,0,0,1,1344,170)" stroke="rgb(255,255,153)">
      <rect x="-969.8522" width="105" height="58.0716" y="1130.033" clip-path="url(#clipPath2)" stroke="none"/>
    </g>
    <g font-size="20" stroke-miterlimit="1.45" font-family="sans-serif" transform="matrix(1,0,0,1,1344,170)" stroke-linecap="butt">
      <text x="-923.4606" xml:space="preserve" y="1166.9253" clip-path="url(#clipPath2)" stroke="none">fr</text>
      <rect fill="none" x="-969.8522" width="105" height="58.0716" y="1130.033" clip-path="url(#clipPath2)"/>
    </g>
    <g fill="rgb(255,255,153)" transform="matrix(1,0,0,1,1344,170)" stroke="rgb(255,255,153)">
      <rect x="-1165.6727" width="105" height="58.0716" y="1130.033" clip-path="url(#clipPath2)" stroke="none"/>
    </g>
    <g font-size="20" stroke-miterlimit="1.45" font-family="sans-serif" transform="matrix(1,0,0,1,1344,170)" stroke-linecap="butt">
      <text x="-1123.7343" xml:space="preserve" y="1166.9253" clip-path="url(#clipPath2)" stroke="none">es</text>
      <rect fill="none" x="-1165.6727" width="105" height="58.0716" y="1130.033" clip-path="url(#clipPath2)"/>
    </g>
    <g fill="gray" transform="matrix(1,0,0,1,1344,170)" stroke="gray">
      <rect x="-1276.0731" width="614.1391" height="85.5" y="977.1565" clip-path="url(#clipPath2)" stroke="none"/>
    </g>
    <g font-size="30" stroke-linecap="butt" transform="matrix(1,0,0,1,1344,170)" fill="rgb(153,51,0)" font-family="sans-serif" stroke="rgb(153,51,0)" stroke-miterlimit="1.45">
      <text x="-1099.0377" xml:space="preserve" y="1013.3177" clip-path="url(#clipPath2)" stroke="none">Special (Micro Site)</text>
      <text font-size="20" x="-1054.609" y="1052.262" clip-path="url(#clipPath2)" fill="white" stroke="none" xml:space="preserve">{city}.nightfever.org</text>
    </g>
    <g stroke-linecap="butt" transform="matrix(1,0,0,1,1344,170)" stroke-miterlimit="1.45">
      <rect fill="none" x="-1276.0731" width="614.1391" height="85.5" y="977.1565" clip-path="url(#clipPath2)"/>
    </g>
    <g fill="white" transform="matrix(1,0,0,1,1344,170)" stroke="white">
      <rect x="-1234.7051" y="1259.2166" clip-path="url(#clipPath2)" width="263.5544" rx="4" ry="4" height="58.0716" stroke="none"/>
    </g>
    <g font-size="20" stroke-miterlimit="1.45" font-family="sans-serif" transform="matrix(1,0,0,1,1344,170)" stroke-linecap="butt">
      <text x="-1128.4993" xml:space="preserve" y="1296.1089" clip-path="url(#clipPath2)" stroke="none">Event</text>
      <rect x="-1234.7051" y="1259.2166" clip-path="url(#clipPath2)" fill="none" width="263.5544" rx="4" ry="4" height="58.0716"/>
    </g>
    <g fill="white" transform="matrix(1,0,0,1,1344,170)" stroke="white">
      <rect x="-1234.7051" y="1347.2882" clip-path="url(#clipPath2)" width="263.5544" rx="4" ry="4" height="58.0716" stroke="none"/>
    </g>
    <g font-size="20" stroke-miterlimit="1.45" font-family="sans-serif" transform="matrix(1,0,0,1,1344,170)" stroke-linecap="butt">
      <text x="-1130.1643" xml:space="preserve" y="1384.1804" clip-path="url(#clipPath2)" stroke="none">Media</text>
      <rect x="-1234.7051" y="1347.2882" clip-path="url(#clipPath2)" fill="none" width="263.5544" rx="4" ry="4" height="58.0716"/>
    </g>
    <g fill="white" transform="matrix(1,0,0,1,1344,170)" stroke="white">
      <rect x="-941.1507" y="1259.2166" clip-path="url(#clipPath2)" width="263.5544" rx="4" ry="4" height="58.0716" stroke="none"/>
    </g>
    <g font-size="20" stroke-miterlimit="1.45" font-family="sans-serif" transform="matrix(1,0,0,1,1344,170)" stroke-linecap="butt">
      <text x="-837.1567" xml:space="preserve" y="1296.1089" clip-path="url(#clipPath2)" stroke="none">Article</text>
      <rect x="-941.1507" y="1259.2166" clip-path="url(#clipPath2)" fill="none" width="263.5544" rx="4" ry="4" height="58.0716"/>
    </g>
    <g fill="white" transform="matrix(1,0,0,1,1344,170)" stroke="white">
      <rect x="-941.1507" y="1347.2882" clip-path="url(#clipPath2)" width="263.5544" rx="4" ry="4" height="58.0716" stroke="none"/>
    </g>
    <g font-size="20" stroke-miterlimit="1.45" font-family="sans-serif" transform="matrix(1,0,0,1,1344,170)" stroke-linecap="butt">
      <text x="-852.7183" xml:space="preserve" y="1384.1804" clip-path="url(#clipPath2)" stroke="none">Micropost</text>
      <rect x="-941.1507" y="1347.2882" clip-path="url(#clipPath2)" fill="none" width="263.5544" rx="4" ry="4" height="58.0716"/>
      <path fill="none" d="M-1013.2916 1062.6565 L-1077.3363 1124.4769" clip-path="url(#clipPath2)"/>
      <path d="M-1083.0922 1130.033 L-1070.9858 1125.2963 L-1076.6168 1123.7823 L-1077.9309 1118.1014 Z" clip-path="url(#clipPath2)" stroke="none"/>
      <path fill="none" d="M-953.1365 1062.6565 L-930.9128 1122.533" clip-path="url(#clipPath2)"/>
      <path d="M-928.1292 1130.0331 L-927.6172 1117.0432 L-931.2608 1121.5955 L-936.9922 1120.5228 Z" clip-path="url(#clipPath2)" stroke="none"/>
    </g>
    <g fill="rgb(245,245,245)" transform="matrix(1,0,0,1,1344,170)" stroke="rgb(245,245,245)">
      <rect x="-409.0196" y="-154.0883" clip-path="url(#clipPath2)" width="1767.6988" rx="4" ry="4" height="883.3254" stroke="none"/>
      <rect x="-409.0196" y="-154.0883" clip-path="url(#clipPath2)" fill="rgb(235,235,235)" width="1767.6988" height="22.3765" stroke="none"/>
    </g>
    <g font-size="15" stroke-miterlimit="1.45" font-family="sans-serif" transform="matrix(1,0,0,1,1344,170)" stroke-linecap="butt">
      <text x="1302.4799" xml:space="preserve" y="-137.0077" clip-path="url(#clipPath2)" stroke="none">Group 7</text>
      <rect x="-409.0196" y="-154.0883" clip-path="url(#clipPath2)" fill="none" width="1767.6988" stroke-dasharray="6,2" rx="4" ry="4" height="883.3254"/>
    </g>
    <g fill="rgb(225,225,225)" transform="matrix(1,0,0,1,1344,170)" stroke="rgb(225,225,225)">
      <rect x="-383.6992" y="181.133" clip-path="url(#clipPath2)" width="555.8753" rx="4" ry="4" height="417.8556" stroke="none"/>
      <rect x="-383.6992" y="181.133" clip-path="url(#clipPath2)" fill="rgb(235,235,235)" width="555.8753" height="22.3765" stroke="none"/>
    </g>
    <g font-size="15" stroke-miterlimit="1.45" font-family="sans-serif" transform="matrix(1,0,0,1,1344,170)" stroke-linecap="butt">
      <text x="115.9769" xml:space="preserve" y="198.2135" clip-path="url(#clipPath2)" stroke="none">Group 7</text>
      <rect x="-383.6992" y="181.133" clip-path="url(#clipPath2)" fill="none" width="555.8753" stroke-dasharray="6,2" rx="4" ry="4" height="417.8556"/>
    </g>
    <g fill="rgb(205,205,205)" transform="matrix(1,0,0,1,1344,170)" stroke="rgb(205,205,205)">
      <rect x="-328.2038" y="325.2288" clip-path="url(#clipPath2)" width="320.5" rx="4" ry="4" height="110.4481" stroke="none"/>
      <rect x="-328.2038" y="325.2288" clip-path="url(#clipPath2)" fill="rgb(235,235,235)" width="320.5" height="22.3765" stroke="none"/>
    </g>
    <g font-size="15" stroke-miterlimit="1.45" font-family="sans-serif" transform="matrix(1,0,0,1,1344,170)" stroke-linecap="butt">
      <text x="-63.903" xml:space="preserve" y="342.3094" clip-path="url(#clipPath2)" stroke="none">Group 8</text>
      <rect x="-328.2038" y="325.2288" clip-path="url(#clipPath2)" fill="none" width="320.5" stroke-dasharray="6,2" rx="4" ry="4" height="110.4481"/>
    </g>
    <g fill="rgb(255,255,153)" transform="matrix(1,0,0,1,1344,170)" stroke="rgb(255,255,153)">
      <rect x="-127.7038" width="105" height="58.0716" y="362.6053" clip-path="url(#clipPath2)" stroke="none"/>
    </g>
    <g font-size="20" stroke-miterlimit="1.45" font-family="sans-serif" transform="matrix(1,0,0,1,1344,170)" stroke-linecap="butt">
      <text x="-81.3122" xml:space="preserve" y="399.4975" clip-path="url(#clipPath2)" stroke="none">fr</text>
      <rect fill="none" x="-127.7038" width="105" height="58.0716" y="362.6053" clip-path="url(#clipPath2)"/>
    </g>
    <g fill="rgb(255,255,153)" transform="matrix(1,0,0,1,1344,170)" stroke="rgb(255,255,153)">
      <rect x="-313.2038" width="105" height="58.0716" y="362.6053" clip-path="url(#clipPath2)" stroke="none"/>
    </g>
    <g font-size="20" stroke-miterlimit="1.45" font-family="sans-serif" transform="matrix(1,0,0,1,1344,170)" stroke-linecap="butt">
      <text x="-271.2653" xml:space="preserve" y="399.4975" clip-path="url(#clipPath2)" stroke="none">es</text>
      <rect fill="none" x="-313.2038" width="105" height="58.0716" y="362.6053" clip-path="url(#clipPath2)"/>
    </g>
    <g fill="rgb(255,204,0)" transform="matrix(1,0,0,1,1344,170)" stroke="rgb(255,204,0)">
      <rect x="-362.1542" y="534.1733" clip-path="url(#clipPath2)" width="244.6651" rx="4" ry="4" height="49.8152" stroke="none"/>
    </g>
    <g font-size="20" stroke-miterlimit="1.45" font-family="sans-serif" transform="matrix(1,0,0,1,1344,170)" stroke-linecap="butt">
      <text x="-264.8265" xml:space="preserve" y="566.9374" clip-path="url(#clipPath2)" stroke="none">News</text>
      <rect x="-362.1542" y="534.1733" clip-path="url(#clipPath2)" fill="none" width="244.6651" rx="4" ry="4" height="49.8152"/>
    </g>
    <g fill="rgb(255,204,0)" transform="matrix(1,0,0,1,1344,170)" stroke="rgb(255,204,0)">
      <rect x="-87.489" y="472.186" clip-path="url(#clipPath2)" width="244.6651" rx="4" ry="4" height="49.8152" stroke="none"/>
    </g>
    <g font-size="20" stroke-miterlimit="1.45" font-family="sans-serif" transform="matrix(1,0,0,1,1344,170)" stroke-linecap="butt">
      <text x="4.2722" xml:space="preserve" y="504.9501" clip-path="url(#clipPath2)" stroke="none">Events</text>
      <rect x="-87.489" y="472.186" clip-path="url(#clipPath2)" fill="none" width="244.6651" rx="4" ry="4" height="49.8152"/>
    </g>
    <g fill="rgb(255,204,0)" transform="matrix(1,0,0,1,1344,170)" stroke="rgb(255,204,0)">
      <rect x="-362.1542" y="472.186" clip-path="url(#clipPath2)" width="244.6651" rx="4" ry="4" height="49.8152" stroke="none"/>
    </g>
    <g font-size="20" stroke-miterlimit="1.45" font-family="sans-serif" transform="matrix(1,0,0,1,1344,170)" stroke-linecap="butt">
      <text x="-264.8265" xml:space="preserve" y="504.9501" clip-path="url(#clipPath2)" stroke="none">Cities</text>
      <rect x="-362.1542" y="472.186" clip-path="url(#clipPath2)" fill="none" width="244.6651" rx="4" ry="4" height="49.8152"/>
    </g>
    <g fill="gray" transform="matrix(1,0,0,1,1344,170)" stroke="gray">
      <rect x="-343.9538" width="352" height="85.5" y="218.5094" clip-path="url(#clipPath2)" stroke="none"/>
    </g>
    <g font-size="30" stroke-linecap="butt" transform="matrix(1,0,0,1,1344,170)" fill="rgb(153,51,0)" font-family="sans-serif" stroke="rgb(153,51,0)" stroke-miterlimit="1.45">
      <text x="-272.1774" xml:space="preserve" y="254.6705" clip-path="url(#clipPath2)" stroke="none">Region/Country</text>
      <text font-size="20" x="-248.5593" y="293.6149" clip-path="url(#clipPath2)" fill="white" stroke="none" xml:space="preserve">nightfever.org/{cc}</text>
    </g>
    <g stroke-linecap="butt" transform="matrix(1,0,0,1,1344,170)" stroke-miterlimit="1.45">
      <rect fill="none" x="-343.9538" width="352" height="85.5" y="218.5094" clip-path="url(#clipPath2)"/>
    </g>
    <g fill="rgb(255,204,0)" transform="matrix(1,0,0,1,1344,170)" stroke="rgb(255,204,0)">
      <rect x="497.5658" y="177.5305" clip-path="url(#clipPath2)" width="244.6651" rx="4" ry="4" height="49.8152" stroke="none"/>
    </g>
    <g font-size="20" stroke-miterlimit="1.45" font-family="sans-serif" transform="matrix(1,0,0,1,1344,170)" stroke-linecap="butt">
      <text x="594.8934" xml:space="preserve" y="210.2946" clip-path="url(#clipPath2)" stroke="none">News</text>
      <rect x="497.5658" y="177.5305" clip-path="url(#clipPath2)" fill="none" width="244.6651" rx="4" ry="4" height="49.8152"/>
    </g>
    <g fill="rgb(255,204,0)" transform="matrix(1,0,0,1,1344,170)" stroke="rgb(255,204,0)">
      <rect x="497.5658" y="239.5178" clip-path="url(#clipPath2)" width="244.6651" rx="4" ry="4" height="49.8152" stroke="none"/>
    </g>
    <g font-size="20" stroke-miterlimit="1.45" font-family="sans-serif" transform="matrix(1,0,0,1,1344,170)" stroke-linecap="butt">
      <text x="589.327" xml:space="preserve" y="272.2819" clip-path="url(#clipPath2)" stroke="none">Events</text>
      <rect x="497.5658" y="239.5178" clip-path="url(#clipPath2)" fill="none" width="244.6651" rx="4" ry="4" height="49.8152"/>
    </g>
    <g fill="rgb(255,204,0)" transform="matrix(1,0,0,1,1344,170)" stroke="rgb(255,204,0)">
      <rect x="222.9006" y="239.5178" clip-path="url(#clipPath2)" width="244.6651" rx="4" ry="4" height="49.8152" stroke="none"/>
    </g>
    <g font-size="20" stroke-miterlimit="1.45" font-family="sans-serif" transform="matrix(1,0,0,1,1344,170)" stroke-linecap="butt">
      <text x="320.2283" xml:space="preserve" y="272.2819" clip-path="url(#clipPath2)" stroke="none">Cities</text>
      <rect x="222.9006" y="239.5178" clip-path="url(#clipPath2)" fill="none" width="244.6651" rx="4" ry="4" height="49.8152"/>
    </g>
    <g fill="rgb(255,204,0)" transform="matrix(1,0,0,1,1344,170)" stroke="rgb(255,204,0)">
      <rect x="222.9006" y="177.5305" clip-path="url(#clipPath2)" width="244.6651" rx="4" ry="4" height="49.8152" stroke="none"/>
    </g>
    <g font-size="20" stroke-miterlimit="1.45" font-family="sans-serif" transform="matrix(1,0,0,1,1344,170)" stroke-linecap="butt">
      <text x="302.4354" xml:space="preserve" y="210.2946" clip-path="url(#clipPath2)" stroke="none">Countries</text>
      <rect x="222.9006" y="177.5305" clip-path="url(#clipPath2)" fill="none" width="244.6651" rx="4" ry="4" height="49.8152"/>
    </g>
    <g fill="gray" transform="matrix(1,0,0,1,1344,170)" stroke="gray">
      <rect x="182.6506" width="755.2102" height="110.4481" y="-88.3656" clip-path="url(#clipPath2)" stroke="none"/>
    </g>
    <g font-size="30" stroke-linecap="butt" transform="matrix(1,0,0,1,1344,170)" fill="rgb(153,51,0)" font-family="sans-serif" stroke="rgb(153,51,0)" stroke-miterlimit="1.45">
      <text x="486.8817" xml:space="preserve" y="-52.2045" clip-path="url(#clipPath2)" stroke="none">Global Site</text>
      <text font-size="20" x="499.1083" y="11.6879" clip-path="url(#clipPath2)" fill="white" stroke="none" xml:space="preserve">nightfever.org</text>
    </g>
    <g stroke-linecap="butt" transform="matrix(1,0,0,1,1344,170)" stroke-miterlimit="1.45">
      <rect fill="none" x="182.6506" width="755.2102" height="110.4481" y="-88.3656" clip-path="url(#clipPath2)"/>
    </g>
    <g fill="rgb(255,255,153)" transform="matrix(1,0,0,1,1344,170)" stroke="rgb(255,255,153)">
      <rect x="779.4006" width="105" height="58.0716" y="74.4589" clip-path="url(#clipPath2)" stroke="none"/>
    </g>
    <g font-size="20" stroke-miterlimit="1.45" font-family="sans-serif" transform="matrix(1,0,0,1,1344,170)" stroke-linecap="butt">
      <text x="820.7776" xml:space="preserve" y="111.3512" clip-path="url(#clipPath2)" stroke="none">de</text>
      <rect fill="none" x="779.4006" width="105" height="58.0716" y="74.4589" clip-path="url(#clipPath2)"/>
    </g>
    <g fill="rgb(255,255,153)" transform="matrix(1,0,0,1,1344,170)" stroke="rgb(255,255,153)">
      <rect x="593.9006" width="105" height="58.0716" y="74.4589" clip-path="url(#clipPath2)" stroke="none"/>
    </g>
    <g font-size="20" stroke-miterlimit="1.45" font-family="sans-serif" transform="matrix(1,0,0,1,1344,170)" stroke-linecap="butt">
      <text x="635.2776" xml:space="preserve" y="111.3512" clip-path="url(#clipPath2)" stroke="none">en</text>
      <rect fill="none" x="593.9006" width="105" height="58.0716" y="74.4589" clip-path="url(#clipPath2)"/>
    </g>
    <g fill="rgb(255,255,153)" transform="matrix(1,0,0,1,1344,170)" stroke="rgb(255,255,153)">
      <rect x="408.4006" width="105" height="58.0716" y="74.4589" clip-path="url(#clipPath2)" stroke="none"/>
    </g>
    <g font-size="20" stroke-miterlimit="1.45" font-family="sans-serif" transform="matrix(1,0,0,1,1344,170)" stroke-linecap="butt">
      <text x="454.7922" xml:space="preserve" y="111.3512" clip-path="url(#clipPath2)" stroke="none">fr</text>
      <rect fill="none" x="408.4006" width="105" height="58.0716" y="74.4589" clip-path="url(#clipPath2)"/>
    </g>
    <g fill="rgb(255,255,153)" transform="matrix(1,0,0,1,1344,170)" stroke="rgb(255,255,153)">
      <rect x="222.9006" width="105" height="58.0716" y="74.4589" clip-path="url(#clipPath2)" stroke="none"/>
    </g>
    <g font-size="20" stroke-miterlimit="1.45" font-family="sans-serif" transform="matrix(1,0,0,1,1344,170)" stroke-linecap="butt">
      <text x="264.8391" xml:space="preserve" y="111.3512" clip-path="url(#clipPath2)" stroke="none">es</text>
      <rect fill="none" x="222.9006" width="105" height="58.0716" y="74.4589" clip-path="url(#clipPath2)"/>
    </g>
    <g fill="white" transform="matrix(1,0,0,1,1344,170)" stroke="white">
      <rect x="779.4006" y="261.4739" clip-path="url(#clipPath2)" width="263.5544" rx="4" ry="4" height="58.0716" stroke="none"/>
    </g>
    <g font-size="20" stroke-miterlimit="1.45" font-family="sans-serif" transform="matrix(1,0,0,1,1344,170)" stroke-linecap="butt">
      <text x="885.6066" xml:space="preserve" y="298.3662" clip-path="url(#clipPath2)" stroke="none">Event</text>
      <rect x="779.4006" y="261.4739" clip-path="url(#clipPath2)" fill="none" width="263.5544" rx="4" ry="4" height="58.0716"/>
    </g>
    <g fill="white" transform="matrix(1,0,0,1,1344,170)" stroke="white">
      <rect x="1080.1248" y="181.6587" clip-path="url(#clipPath2)" width="263.5544" rx="4" ry="4" height="58.0716" stroke="none"/>
    </g>
    <g font-size="20" stroke-miterlimit="1.45" font-family="sans-serif" transform="matrix(1,0,0,1,1344,170)" stroke-linecap="butt">
      <text x="1184.1188" xml:space="preserve" y="218.5509" clip-path="url(#clipPath2)" stroke="none">Article</text>
      <rect x="1080.1248" y="181.6587" clip-path="url(#clipPath2)" fill="none" width="263.5544" rx="4" ry="4" height="58.0716"/>
    </g>
    <g fill="white" transform="matrix(1,0,0,1,1344,170)" stroke="white">
      <rect x="1080.1248" y="261.4739" clip-path="url(#clipPath2)" width="263.5544" rx="4" ry="4" height="58.0716" stroke="none"/>
    </g>
    <g font-size="20" stroke-miterlimit="1.45" font-family="sans-serif" transform="matrix(1,0,0,1,1344,170)" stroke-linecap="butt">
      <text x="1184.6656" xml:space="preserve" y="298.3662" clip-path="url(#clipPath2)" stroke="none">Media</text>
      <rect x="1080.1248" y="261.4739" clip-path="url(#clipPath2)" fill="none" width="263.5544" rx="4" ry="4" height="58.0716"/>
    </g>
    <g fill="white" transform="matrix(1,0,0,1,1344,170)" stroke="white">
      <rect x="1080.1248" y="349.5455" clip-path="url(#clipPath2)" width="263.5544" rx="4" ry="4" height="58.0716" stroke="none"/>
    </g>
    <g font-size="20" stroke-miterlimit="1.45" font-family="sans-serif" transform="matrix(1,0,0,1,1344,170)" stroke-linecap="butt">
      <text x="1168.5573" xml:space="preserve" y="386.4378" clip-path="url(#clipPath2)" stroke="none">Micropost</text>
      <rect x="1080.1248" y="349.5455" clip-path="url(#clipPath2)" fill="none" width="263.5544" rx="4" ry="4" height="58.0716"/>
    </g>
    <g fill="white" transform="matrix(1,0,0,1,1344,170)" stroke="white">
      <rect x="779.4006" y="173.4023" clip-path="url(#clipPath2)" width="263.5544" rx="4" ry="4" height="58.0716" stroke="none"/>
    </g>
    <g font-size="20" stroke-miterlimit="1.45" font-family="sans-serif" transform="matrix(1,0,0,1,1344,170)" stroke-linecap="butt">
      <text x="887.8234" xml:space="preserve" y="210.2946" clip-path="url(#clipPath2)" stroke="none">Page</text>
      <rect x="779.4006" y="173.4023" clip-path="url(#clipPath2)" fill="none" width="263.5544" rx="4" ry="4" height="58.0716"/>
      <path fill="none" d="M-198.365 304.0094 L-235.4112 356.0864" clip-path="url(#clipPath2)"/>
      <path d="M-240.0485 362.6053 L-229.0183 355.7253 L-234.8315 355.2716 L-237.1668 349.9287 Z" clip-path="url(#clipPath2)" stroke="none"/>
      <path fill="none" d="M-137.5426 304.0094 L-100.4964 356.0864" clip-path="url(#clipPath2)"/>
      <path d="M-95.8591 362.6053 L-98.7408 349.9287 L-101.0761 355.2716 L-106.8894 355.7253 Z" clip-path="url(#clipPath2)" stroke="none"/>
      <path fill="none" d="M222.919 216.4577 L15.9942 240.1754" clip-path="url(#clipPath2)"/>
      <path d="M8.0462 241.0864 L20.5375 244.6874 L16.9876 240.0615 L19.3988 234.7524 Z" clip-path="url(#clipPath2)" stroke="none"/>
      <path fill="none" d="M843.4539 22.108 L833.6303 66.6213" clip-path="url(#clipPath2)"/>
      <path d="M831.9063 74.4334 L839.3748 63.7928 L833.8458 65.6448 L829.6098 61.6378 Z" clip-path="url(#clipPath2)" stroke="none"/>
      <path fill="none" d="M654.653 22.108 L647.6504 66.5309" clip-path="url(#clipPath2)"/>
      <path d="M646.4047 74.4333 L653.2123 63.3583 L647.8061 65.5431 L643.3342 61.8011 Z" clip-path="url(#clipPath2)" stroke="none"/>
      <path fill="none" d="M465.8521 22.108 L461.6563 66.4689" clip-path="url(#clipPath2)"/>
      <path d="M460.9031 74.4334 L467.0108 62.9575 L461.7505 65.4733 L457.0552 62.0159 Z" clip-path="url(#clipPath2)" stroke="none"/>
      <path fill="none" d="M277.0511 22.108 L275.6535 66.4373" clip-path="url(#clipPath2)"/>
      <path d="M275.4015 74.4334 L280.7771 62.5969 L275.6851 65.4378 L270.782 62.2818 Z" clip-path="url(#clipPath2)" stroke="none"/>
      <path fill="none" d="M742.2485 275.382 L771.4399 277.9961" clip-path="url(#clipPath2)"/>
      <path d="M779.408 278.7097 L767.9018 272.6592 L770.4439 277.9069 L767.0099 282.6194 Z" clip-path="url(#clipPath2)" stroke="none"/>
      <path fill="none" d="M742.2087 204.1439 L1072.1168 208.745" clip-path="url(#clipPath2)"/>
      <path d="M1080.1161 208.8565 L1068.187 203.6897 L1071.1169 208.731 L1068.0475 213.6887 Z" clip-path="url(#clipPath2)" stroke="none"/>
      <path fill="none" d="M742.2087 220.6341 L1072.2031 269.7269" clip-path="url(#clipPath2)"/>
      <path d="M1080.1161 270.9041 L1068.9824 264.1928 L1071.2141 269.5798 L1067.511 274.0839 Z" clip-path="url(#clipPath2)" stroke="none"/>
      <path fill="none" d="M703.6186 227.348 L1106.6664 347.2698" clip-path="url(#clipPath2)"/>
      <path d="M1114.3342 349.5513 L1104.2584 341.3367 L1105.708 346.9846 L1101.4066 350.9214 Z" clip-path="url(#clipPath2)" stroke="none"/>
    </g>
    <g fill="rgb(245,245,245)" transform="matrix(1,0,0,1,1344,170)" stroke="rgb(245,245,245)">
      <rect x="-509.5682" y="954.7801" clip-path="url(#clipPath2)" width="1158.0947" rx="4" ry="4" height="593.1753" stroke="none"/>
      <rect x="-509.5682" y="954.7801" clip-path="url(#clipPath2)" fill="rgb(235,235,235)" width="1158.0947" height="22.3765" stroke="none"/>
    </g>
    <g font-size="15" stroke-miterlimit="1.45" font-family="sans-serif" transform="matrix(1,0,0,1,1344,170)" stroke-linecap="butt">
      <text x="592.3273" xml:space="preserve" y="971.8607" clip-path="url(#clipPath2)" stroke="none">Group 6</text>
      <rect x="-509.5682" y="954.7801" clip-path="url(#clipPath2)" fill="none" width="1158.0947" stroke-dasharray="6,2" rx="4" ry="4" height="593.1753"/>
      <path fill="none" stroke-width="3" d="M338.2737 289.334 L155.0446 945.1232" clip-path="url(#clipPath2)"/>
      <path stroke-width="3" d="M152.3536 954.7543 L162.4095 941.9895 L155.381 943.9193 L150.3706 938.6258 Z" clip-path="url(#clipPath2)" stroke="none"/>
      <path fill="none" stroke-width="3" d="M-229.6085 521.9998 L-55.947 945.498" clip-path="url(#clipPath2)"/>
      <path stroke-width="3" d="M-52.153 954.7504 L-52.0614 938.5006 L-56.4213 944.3415 L-63.6268 943.2432 Z" clip-path="url(#clipPath2)" stroke="none"/>
    </g>
    <g fill="rgb(225,225,225)" transform="matrix(1,0,0,1,1344,170)" stroke="rgb(225,225,225)">
      <rect x="-98.3319" y="1101.4221" clip-path="url(#clipPath2)" width="320.5" rx="4" ry="4" height="110.4481" stroke="none"/>
      <rect x="-98.3319" y="1101.4221" clip-path="url(#clipPath2)" fill="rgb(235,235,235)" width="320.5" height="22.3765" stroke="none"/>
    </g>
    <g font-size="15" stroke-miterlimit="1.45" font-family="sans-serif" transform="matrix(1,0,0,1,1344,170)" stroke-linecap="butt">
      <text x="165.9689" xml:space="preserve" y="1118.5027" clip-path="url(#clipPath2)" stroke="none">Group 2</text>
      <rect x="-98.3319" y="1101.4221" clip-path="url(#clipPath2)" fill="none" width="320.5" stroke-dasharray="6,2" rx="4" ry="4" height="110.4481"/>
    </g>
    <g fill="rgb(255,255,153)" transform="matrix(1,0,0,1,1344,170)" stroke="rgb(255,255,153)">
      <rect x="102.1681" width="105" height="58.0716" y="1138.7986" clip-path="url(#clipPath2)" stroke="none"/>
    </g>
    <g font-size="20" stroke-miterlimit="1.45" font-family="sans-serif" transform="matrix(1,0,0,1,1344,170)" stroke-linecap="butt">
      <text x="148.5597" xml:space="preserve" y="1175.6908" clip-path="url(#clipPath2)" stroke="none">fr</text>
      <rect fill="none" x="102.1681" width="105" height="58.0716" y="1138.7986" clip-path="url(#clipPath2)"/>
    </g>
    <g fill="rgb(255,255,153)" transform="matrix(1,0,0,1,1344,170)" stroke="rgb(255,255,153)">
      <rect x="-83.3319" width="105" height="58.0716" y="1138.7986" clip-path="url(#clipPath2)" stroke="none"/>
    </g>
    <g font-size="20" stroke-miterlimit="1.45" font-family="sans-serif" transform="matrix(1,0,0,1,1344,170)" stroke-linecap="butt">
      <text x="-41.3934" xml:space="preserve" y="1175.6908" clip-path="url(#clipPath2)" stroke="none">es</text>
      <rect fill="none" x="-83.3319" width="105" height="58.0716" y="1138.7986" clip-path="url(#clipPath2)"/>
    </g>
    <g fill="gray" transform="matrix(1,0,0,1,1344,170)" stroke="gray">
      <rect x="-230.4335" width="614.1391" height="85.5" y="992.1565" clip-path="url(#clipPath2)" stroke="none"/>
    </g>
    <g font-size="30" stroke-linecap="butt" transform="matrix(1,0,0,1,1344,170)" fill="rgb(153,51,0)" font-family="sans-serif" stroke="rgb(153,51,0)" stroke-miterlimit="1.45">
      <text x="50.8035" xml:space="preserve" y="1028.3176" clip-path="url(#clipPath2)" stroke="none">City</text>
      <text font-size="20" x="-8.9694" y="1067.262" clip-path="url(#clipPath2)" fill="white" stroke="none" xml:space="preserve">{city}.nightfever.org</text>
    </g>
    <g stroke-linecap="butt" transform="matrix(1,0,0,1,1344,170)" stroke-miterlimit="1.45">
      <rect fill="none" x="-230.4335" width="614.1391" height="85.5" y="992.1565" clip-path="url(#clipPath2)"/>
    </g>
    <g fill="white" transform="matrix(1,0,0,1,1344,170)" stroke="white">
      <rect x="73.6513" y="1258.0122" clip-path="url(#clipPath2)" width="263.5544" rx="4" ry="4" height="58.0716" stroke="none"/>
    </g>
    <g font-size="20" stroke-miterlimit="1.45" font-family="sans-serif" transform="matrix(1,0,0,1,1344,170)" stroke-linecap="butt">
      <text x="179.8572" xml:space="preserve" y="1294.9044" clip-path="url(#clipPath2)" stroke="none">Event</text>
      <rect x="73.6513" y="1258.0122" clip-path="url(#clipPath2)" fill="none" width="263.5544" rx="4" ry="4" height="58.0716"/>
    </g>
    <g fill="white" transform="matrix(1,0,0,1,1344,170)" stroke="white">
      <rect x="-219.9031" y="1434.1554" clip-path="url(#clipPath2)" width="263.5544" rx="4" ry="4" height="58.0716" stroke="none"/>
    </g>
    <g font-size="20" stroke-miterlimit="1.45" font-family="sans-serif" transform="matrix(1,0,0,1,1344,170)" stroke-linecap="butt">
      <text x="-115.3622" xml:space="preserve" y="1471.0476" clip-path="url(#clipPath2)" stroke="none">Media</text>
      <rect x="-219.9031" y="1434.1554" clip-path="url(#clipPath2)" fill="none" width="263.5544" rx="4" ry="4" height="58.0716"/>
    </g>
    <g fill="white" transform="matrix(1,0,0,1,1344,170)" stroke="white">
      <rect x="-219.9031" y="1258.0122" clip-path="url(#clipPath2)" width="263.5544" rx="4" ry="4" height="58.0716" stroke="none"/>
    </g>
    <g font-size="20" stroke-miterlimit="1.45" font-family="sans-serif" transform="matrix(1,0,0,1,1344,170)" stroke-linecap="butt">
      <text x="-115.9091" xml:space="preserve" y="1294.9044" clip-path="url(#clipPath2)" stroke="none">Article</text>
      <rect x="-219.9031" y="1258.0122" clip-path="url(#clipPath2)" fill="none" width="263.5544" rx="4" ry="4" height="58.0716"/>
    </g>
    <g fill="white" transform="matrix(1,0,0,1,1344,170)" stroke="white">
      <rect x="-219.9031" y="1346.0838" clip-path="url(#clipPath2)" width="263.5544" rx="4" ry="4" height="58.0716" stroke="none"/>
    </g>
    <g font-size="20" stroke-miterlimit="1.45" font-family="sans-serif" transform="matrix(1,0,0,1,1344,170)" stroke-linecap="butt">
      <text x="-131.4706" xml:space="preserve" y="1382.9761" clip-path="url(#clipPath2)" stroke="none">Micropost</text>
      <rect x="-219.9031" y="1346.0838" clip-path="url(#clipPath2)" fill="none" width="263.5544" rx="4" ry="4" height="58.0716"/>
    </g>
    <g fill="white" transform="matrix(1,0,0,1,1344,170)" stroke="white">
      <rect x="73.6513" y="1346.0838" clip-path="url(#clipPath2)" width="263.5544" rx="4" ry="4" height="58.0716" stroke="none"/>
    </g>
    <g font-size="20" stroke-miterlimit="1.45" font-family="sans-serif" transform="matrix(1,0,0,1,1344,170)" stroke-linecap="butt">
      <text x="182.074" xml:space="preserve" y="1382.9761" clip-path="url(#clipPath2)" stroke="none">Page</text>
      <rect x="73.6513" y="1346.0838" clip-path="url(#clipPath2)" fill="none" width="263.5544" rx="4" ry="4" height="58.0716"/>
    </g>
    <g fill="rgb(255,204,0)" transform="matrix(1,0,0,1,1344,170)" stroke="rgb(255,204,0)">
      <rect x="388.8613" y="1262.1404" clip-path="url(#clipPath2)" width="244.6651" rx="4" ry="4" height="49.8152" stroke="none"/>
    </g>
    <g font-size="20" stroke-miterlimit="1.45" font-family="sans-serif" transform="matrix(1,0,0,1,1344,170)" stroke-linecap="butt">
      <text x="480.6226" xml:space="preserve" y="1294.9044" clip-path="url(#clipPath2)" stroke="none">Events</text>
      <rect x="388.8613" y="1262.1404" clip-path="url(#clipPath2)" fill="none" width="244.6651" rx="4" ry="4" height="49.8152"/>
    </g>
    <g fill="rgb(255,204,0)" transform="matrix(1,0,0,1,1344,170)" stroke="rgb(255,204,0)">
      <rect x="-494.5682" y="1262.1404" clip-path="url(#clipPath2)" width="244.6651" rx="4" ry="4" height="49.8152" stroke="none"/>
    </g>
    <g font-size="20" stroke-miterlimit="1.45" font-family="sans-serif" transform="matrix(1,0,0,1,1344,170)" stroke-linecap="butt">
      <text x="-397.2405" xml:space="preserve" y="1294.9044" clip-path="url(#clipPath2)" stroke="none">News</text>
      <rect x="-494.5682" y="1262.1404" clip-path="url(#clipPath2)" fill="none" width="244.6651" rx="4" ry="4" height="49.8152"/>
      <path fill="none" d="M42.074 1077.6565 L-2.3278 1132.5774" clip-path="url(#clipPath2)"/>
      <path d="M-7.3574 1138.7986 L4.0753 1132.6104 L-1.6991 1131.7998 L-3.7012 1126.3234 Z" clip-path="url(#clipPath2)" stroke="none"/>
      <path fill="none" d="M101.7314 1077.6565 L133.5734 1131.8994" clip-path="url(#clipPath2)"/>
      <path d="M137.6233 1138.7986 L135.8604 1125.9187 L133.0672 1131.0371 L127.2365 1130.9811 Z" clip-path="url(#clipPath2)" stroke="none"/>
      <path fill="none" stroke-width="3" d="M49.8603 521.9967 L491.0079 1253.5726" clip-path="url(#clipPath2)"/>
      <path stroke-width="3" d="M496.1718 1262.1362 L493.7782 1246.0635 L490.3625 1252.5022 L483.0738 1252.5183 Z" clip-path="url(#clipPath2)" stroke="none"/>
      <path fill="none" stroke-width="3" d="M617.2477 289.3606 L514.9017 1252.168" clip-path="url(#clipPath2)"/>
      <path stroke-width="3" d="M513.8446 1262.1119 L521.6452 1247.8567 L515.0338 1250.9249 L509.2152 1246.5353 Z" clip-path="url(#clipPath2)" stroke="none"/>
      <path fill="none" d="M388.8802 1287.048 L345.2397 1287.048" clip-path="url(#clipPath2)"/>
      <path d="M337.2397 1287.048 L349.2397 1292.048 L346.2397 1287.048 L349.2397 1282.048 Z" clip-path="url(#clipPath2)" stroke="none"/>
      <path fill="none" stroke-width="3" d="M-244.3555 584.0071 L-365.9113 1252.2786" clip-path="url(#clipPath2)"/>
      <path stroke-width="3" d="M-367.7008 1262.1172 L-358.8674 1248.4778 L-365.6876 1251.0488 L-371.1656 1246.2408 Z" clip-path="url(#clipPath2)" stroke="none"/>
      <path fill="none" stroke-width="3" d="M597.0994 227.3622 L-342.6786 1254.736" clip-path="url(#clipPath2)"/>
      <path stroke-width="3" d="M-349.4281 1262.1146 L-334.6922 1255.2651 L-341.8349 1253.8136 L-343.9155 1246.8282 Z" clip-path="url(#clipPath2)" stroke="none"/>
      <path fill="none" d="M-249.9145 1287.048 L-227.9346 1287.048" clip-path="url(#clipPath2)"/>
      <path d="M-219.9346 1287.048 L-231.9346 1282.048 L-228.9346 1287.048 L-231.9346 1292.048 Z" clip-path="url(#clipPath2)" stroke="none"/>
      <path fill="none" d="M-291.8789 1311.9579 L-189.411 1343.722" clip-path="url(#clipPath2)"/>
      <path d="M-181.7697 1346.0908 L-191.7512 1337.7618 L-190.3662 1343.4259 L-194.7121 1347.3135 Z" clip-path="url(#clipPath2)" stroke="none"/>
      <path fill="none" d="M-332.0399 1311.9686 L-141.7607 1429.9385" clip-path="url(#clipPath2)"/>
      <path d="M-134.9615 1434.1539 L-142.5257 1423.5812 L-142.6106 1429.4115 L-147.795 1432.0803 Z" clip-path="url(#clipPath2)" stroke="none"/>
    </g>
    <g fill="rgb(245,245,245)" transform="matrix(1,0,0,1,1344,170)" stroke="rgb(245,245,245)">
      <rect x="707.9226" y="934.7284" clip-path="url(#clipPath2)" width="1262.672" rx="4" ry="4" height="582.9244" stroke="none"/>
      <rect x="707.9226" y="934.7284" clip-path="url(#clipPath2)" fill="rgb(235,235,235)" width="1262.672" height="22.3765" stroke="none"/>
    </g>
    <g font-size="15" stroke-miterlimit="1.45" font-family="sans-serif" transform="matrix(1,0,0,1,1344,170)" stroke-linecap="butt">
      <text x="1914.3954" xml:space="preserve" y="951.8089" clip-path="url(#clipPath2)" stroke="none">Group 7</text>
      <rect x="707.9226" y="934.7284" clip-path="url(#clipPath2)" fill="none" width="1262.672" stroke-dasharray="6,2" rx="4" ry="4" height="582.9244"/>
    </g>
    <g fill="rgb(225,225,225)" transform="matrix(1,0,0,1,1344,170)" stroke="rgb(225,225,225)">
      <rect x="1206.1885" y="1087.6048" clip-path="url(#clipPath2)" width="320.5" rx="4" ry="4" height="110.4481" stroke="none"/>
      <rect x="1206.1885" y="1087.6048" clip-path="url(#clipPath2)" fill="rgb(235,235,235)" width="320.5" height="22.3765" stroke="none"/>
    </g>
    <g font-size="15" stroke-miterlimit="1.45" font-family="sans-serif" transform="matrix(1,0,0,1,1344,170)" stroke-linecap="butt">
      <text x="1470.4893" xml:space="preserve" y="1104.6854" clip-path="url(#clipPath2)" stroke="none">Group 2</text>
      <rect x="1206.1885" y="1087.6048" clip-path="url(#clipPath2)" fill="none" width="320.5" stroke-dasharray="6,2" rx="4" ry="4" height="110.4481"/>
    </g>
    <g fill="rgb(255,255,153)" transform="matrix(1,0,0,1,1344,170)" stroke="rgb(255,255,153)">
      <rect x="1406.6885" width="105" height="58.0716" y="1124.9813" clip-path="url(#clipPath2)" stroke="none"/>
    </g>
    <g font-size="20" stroke-miterlimit="1.45" font-family="sans-serif" transform="matrix(1,0,0,1,1344,170)" stroke-linecap="butt">
      <text x="1453.0801" xml:space="preserve" y="1161.8735" clip-path="url(#clipPath2)" stroke="none">fr</text>
      <rect fill="none" x="1406.6885" width="105" height="58.0716" y="1124.9813" clip-path="url(#clipPath2)"/>
    </g>
    <g fill="rgb(255,255,153)" transform="matrix(1,0,0,1,1344,170)" stroke="rgb(255,255,153)">
      <rect x="1221.1885" width="105" height="58.0716" y="1124.9813" clip-path="url(#clipPath2)" stroke="none"/>
    </g>
    <g font-size="20" stroke-miterlimit="1.45" font-family="sans-serif" transform="matrix(1,0,0,1,1344,170)" stroke-linecap="butt">
      <text x="1263.127" xml:space="preserve" y="1161.8735" clip-path="url(#clipPath2)" stroke="none">es</text>
      <rect fill="none" x="1221.1885" width="105" height="58.0716" y="1124.9813" clip-path="url(#clipPath2)"/>
    </g>
    <g fill="gray" transform="matrix(1,0,0,1,1344,170)" stroke="gray">
      <rect x="1042.8562" width="647.1645" height="85.5" y="972.1048" clip-path="url(#clipPath2)" stroke="none"/>
    </g>
    <g font-size="30" stroke-linecap="butt" transform="matrix(1,0,0,1,1344,170)" fill="rgb(153,51,0)" font-family="sans-serif" stroke="rgb(153,51,0)" stroke-miterlimit="1.45">
      <text x="1319.7539" xml:space="preserve" y="1008.2659" clip-path="url(#clipPath2)" stroke="none">Project</text>
      <text font-size="20" x="1265.8184" y="1047.2103" clip-path="url(#clipPath2)" fill="white" stroke="none" xml:space="preserve">{project}.nightfever.org</text>
    </g>
    <g stroke-linecap="butt" transform="matrix(1,0,0,1,1344,170)" stroke-miterlimit="1.45">
      <rect fill="none" x="1042.8562" width="647.1645" height="85.5" y="972.1048" clip-path="url(#clipPath2)"/>
    </g>
    <g fill="white" transform="matrix(1,0,0,1,1344,170)" stroke="white">
      <rect x="1395.7194" y="1268.438" clip-path="url(#clipPath2)" width="263.5544" rx="4" ry="4" height="58.0716" stroke="none"/>
    </g>
    <g font-size="20" stroke-miterlimit="1.45" font-family="sans-serif" transform="matrix(1,0,0,1,1344,170)" stroke-linecap="butt">
      <text x="1501.9253" xml:space="preserve" y="1305.3302" clip-path="url(#clipPath2)" stroke="none">Event</text>
      <rect x="1395.7194" y="1268.438" clip-path="url(#clipPath2)" fill="none" width="263.5544" rx="4" ry="4" height="58.0716"/>
    </g>
    <g fill="white" transform="matrix(1,0,0,1,1344,170)" stroke="white">
      <rect x="1102.165" y="1444.5812" clip-path="url(#clipPath2)" width="263.5544" rx="4" ry="4" height="58.0716" stroke="none"/>
    </g>
    <g font-size="20" stroke-miterlimit="1.45" font-family="sans-serif" transform="matrix(1,0,0,1,1344,170)" stroke-linecap="butt">
      <text x="1206.7058" xml:space="preserve" y="1481.4734" clip-path="url(#clipPath2)" stroke="none">Media</text>
      <rect x="1102.165" y="1444.5812" clip-path="url(#clipPath2)" fill="none" width="263.5544" rx="4" ry="4" height="58.0716"/>
    </g>
    <g fill="white" transform="matrix(1,0,0,1,1344,170)" stroke="white">
      <rect x="1102.165" y="1268.438" clip-path="url(#clipPath2)" width="263.5544" rx="4" ry="4" height="58.0716" stroke="none"/>
    </g>
    <g font-size="20" stroke-miterlimit="1.45" font-family="sans-serif" transform="matrix(1,0,0,1,1344,170)" stroke-linecap="butt">
      <text x="1206.1589" xml:space="preserve" y="1305.3302" clip-path="url(#clipPath2)" stroke="none">Article</text>
      <rect x="1102.165" y="1268.438" clip-path="url(#clipPath2)" fill="none" width="263.5544" rx="4" ry="4" height="58.0716"/>
    </g>
    <g fill="white" transform="matrix(1,0,0,1,1344,170)" stroke="white">
      <rect x="1102.165" y="1356.5096" clip-path="url(#clipPath2)" width="263.5544" rx="4" ry="4" height="58.0716" stroke="none"/>
    </g>
    <g font-size="20" stroke-miterlimit="1.45" font-family="sans-serif" transform="matrix(1,0,0,1,1344,170)" stroke-linecap="butt">
      <text x="1190.5974" xml:space="preserve" y="1393.4019" clip-path="url(#clipPath2)" stroke="none">Micropost</text>
      <rect x="1102.165" y="1356.5096" clip-path="url(#clipPath2)" fill="none" width="263.5544" rx="4" ry="4" height="58.0716"/>
    </g>
    <g fill="white" transform="matrix(1,0,0,1,1344,170)" stroke="white">
      <rect x="1395.7194" y="1356.5096" clip-path="url(#clipPath2)" width="263.5544" rx="4" ry="4" height="58.0716" stroke="none"/>
    </g>
    <g font-size="20" stroke-miterlimit="1.45" font-family="sans-serif" transform="matrix(1,0,0,1,1344,170)" stroke-linecap="butt">
      <text x="1504.1421" xml:space="preserve" y="1393.4019" clip-path="url(#clipPath2)" stroke="none">Page</text>
      <rect x="1395.7194" y="1356.5096" clip-path="url(#clipPath2)" fill="none" width="263.5544" rx="4" ry="4" height="58.0716"/>
    </g>
    <g fill="rgb(255,204,0)" transform="matrix(1,0,0,1,1344,170)" stroke="rgb(255,204,0)">
      <rect x="1710.9294" y="1272.5662" clip-path="url(#clipPath2)" width="244.6651" rx="4" ry="4" height="49.8152" stroke="none"/>
    </g>
    <g font-size="20" stroke-miterlimit="1.45" font-family="sans-serif" transform="matrix(1,0,0,1,1344,170)" stroke-linecap="butt">
      <text x="1802.6907" xml:space="preserve" y="1305.3302" clip-path="url(#clipPath2)" stroke="none">Events</text>
      <rect x="1710.9294" y="1272.5662" clip-path="url(#clipPath2)" fill="none" width="244.6651" rx="4" ry="4" height="49.8152"/>
    </g>
    <g fill="rgb(255,204,0)" transform="matrix(1,0,0,1,1344,170)" stroke="rgb(255,204,0)">
      <rect x="827.4999" y="1272.5662" clip-path="url(#clipPath2)" width="244.6651" rx="4" ry="4" height="49.8152" stroke="none"/>
    </g>
    <g font-size="20" stroke-miterlimit="1.45" font-family="sans-serif" transform="matrix(1,0,0,1,1344,170)" stroke-linecap="butt">
      <text x="924.8275" xml:space="preserve" y="1305.3302" clip-path="url(#clipPath2)" stroke="none">News</text>
      <rect x="827.4999" y="1272.5662" clip-path="url(#clipPath2)" fill="none" width="244.6651" rx="4" ry="4" height="49.8152"/>
      <path fill="none" d="M1337.946 1057.6049 L1297.4773 1118.3243" clip-path="url(#clipPath2)"/>
      <path d="M1293.0405 1124.9813 L1303.8563 1117.7688 L1298.0319 1117.4922 L1295.535 1112.2229 Z" clip-path="url(#clipPath2)" stroke="none"/>
      <path fill="none" d="M1394.9308 1057.6049 L1435.3997 1118.3243" clip-path="url(#clipPath2)"/>
      <path d="M1439.8364 1124.9813 L1437.3419 1112.2229 L1434.8451 1117.4922 L1429.0206 1117.7688 Z" clip-path="url(#clipPath2)" stroke="none"/>
      <path fill="none" stroke-width="3" d="M649.1882 289.3626 L1796.4146 1266.1022" clip-path="url(#clipPath2)"/>
      <path stroke-width="3" d="M1804.0287 1272.5848 L1796.6592 1258.1021 L1795.4628 1265.2919 L1788.5558 1267.6196 Z" clip-path="url(#clipPath2)" stroke="none"/>
      <path fill="none" d="M1710.9484 1297.4738 L1667.3077 1297.4738" clip-path="url(#clipPath2)"/>
      <path d="M1659.3077 1297.4738 L1671.3077 1302.4738 L1668.3077 1297.4738 L1671.3077 1292.4738 Z" clip-path="url(#clipPath2)" stroke="none"/>
      <path fill="none" stroke-width="3" d="M627.3996 227.3344 L939.4397 1262.9808" clip-path="url(#clipPath2)"/>
      <path stroke-width="3" d="M942.3246 1272.5557 L943.9815 1256.3904 L939.0791 1261.7839 L932.013 1259.9965 Z" clip-path="url(#clipPath2)" stroke="none"/>
      <path fill="none" d="M1072.1536 1297.4738 L1094.1334 1297.4738" clip-path="url(#clipPath2)"/>
      <path d="M1102.1334 1297.4738 L1090.1334 1292.4738 L1093.1334 1297.4738 L1090.1334 1302.4738 Z" clip-path="url(#clipPath2)" stroke="none"/>
      <path fill="none" d="M1030.1892 1322.3837 L1132.6571 1354.1478" clip-path="url(#clipPath2)"/>
      <path d="M1140.2983 1356.5166 L1130.3169 1348.1876 L1131.7019 1353.8517 L1127.356 1357.7393 Z" clip-path="url(#clipPath2)" stroke="none"/>
      <path fill="none" d="M990.0281 1322.3944 L1180.3074 1440.3643" clip-path="url(#clipPath2)"/>
      <path d="M1187.1066 1444.5797 L1179.5424 1434.007 L1179.4574 1439.8373 L1174.2731 1442.506 Z" clip-path="url(#clipPath2)" stroke="none"/>
    </g>
  </g>
</svg>
